<svg xmlns="http://www.w3.org/2000/svg" width="17" height="13"><path d="M16.747 4.051a5.214 5.214 0 01-.892.777 171.993 171.993 0 00-4.445 3.079c-.75.554-1.679 1.232-2.652 1.232h-.017c-.973 0-1.902-.678-2.652-1.232-1.455-1.062-2.954-2.07-4.436-3.079a4.99 4.99 0 01-.902-.777v7.088c0 .785.643 1.428 1.429 1.428h13.139c.786 0 1.428-.643 1.428-1.428V4.051zm0-2.624c0-.786-.651-1.428-1.428-1.428H2.18c-.956 0-1.429.75-1.429 1.624 0 .813.902 1.821 1.536 2.25 1.383.964 2.785 1.928 4.168 2.901.581.402 1.562 1.223 2.286 1.223h.017c.723 0 1.705-.821 2.286-1.223 1.383-.973 2.785-1.937 4.177-2.901.786-.545 1.526-1.446 1.526-2.446z" fill="#60A75E"/></svg>