<svg xmlns="http://www.w3.org/2000/svg" width="117" height="74"><path d="M113.585 45.547L48.472 69.273a5.283 5.283 0 01-4.004-.151 5.149 5.149 0 01-2.722-2.896L28.392 30.674a5.052 5.052 0 01.154-3.943 5.171 5.171 0 012.94-2.682L96.598.323a5.276 5.276 0 014.004.151 5.152 5.152 0 012.722 2.896l13.354 35.551c1.001 2.667-.387 5.639-3.093 6.626zm-6.545-3.113l-26.823-8.288-4.144 5.84a2.633 2.633 0 01-2.798 1.018l-7.003-1.774-14.889 23.485 55.657-20.281zM45.711 61.925l15.243-24.042-26.825-6.796 11.582 30.838zM38.696 26.92l34.126 8.645 20.197-28.44L38.696 26.92zM99.241 7.358L83.366 29.715l27.462 8.485L99.241 7.358zM30.49 66.933c.502 1.335-.19 2.818-1.547 3.312l-9.863 3.594c-.3.11-.607.161-.908.161a2.615 2.615 0 01-2.455-1.684c-.502-1.335.191-2.818 1.546-3.312l9.864-3.595c1.355-.493 2.862.188 3.363 1.524zM15.593 46.31l-6.088 2.219c-.3.109-.607.161-.908.161a2.62 2.62 0 01-2.456-1.684c-.501-1.336.191-2.818 1.547-3.313l6.089-2.218c1.355-.494 2.861.187 3.363 1.523.502 1.336-.191 2.819-1.547 3.312zM9.592 62.528c.502 1.335-.191 2.818-1.547 3.312l-4.524 1.649a2.648 2.648 0 01-.908.161 2.618 2.618 0 01-2.455-1.684c-.501-1.336.191-2.819 1.547-3.313l4.524-1.649c1.355-.493 2.861.188 3.363 1.524z" fill="#60A75E"/></svg>